<svg width="21" height="56" viewBox="0 0 21 56" fill="none" xmlns="http://www.w3.org/2000/svg">
<path d="M10.4484 10.6247C13.3823 10.6247 15.7607 8.24631 15.7607 5.31237C15.7607 2.37843 13.3823 0 10.4484 0C7.51441 0 5.13599 2.37843 5.13599 5.31237C5.13599 8.24631 7.51441 10.6247 10.4484 10.6247Z" fill="#568F0A"/>
<path d="M16.8659 13.07C16.1982 12.4582 15.5527 12.1813 15.0457 12.0609C14.8675 12.0028 14.6774 11.9702 14.4796 11.9702H6.41727C6.21918 11.9702 6.02865 12.0028 5.85015 12.0611C5.34347 12.1818 4.69843 12.4587 4.03096 13.0698C1.2494 15.6178 0.102405 22.0819 0.621364 32.2831C0.659849 33.04 1.28553 33.6279 2.03493 33.6277C2.05924 33.6277 2.08356 33.627 2.10812 33.6258C2.88963 33.5861 3.49075 32.9203 3.45108 32.139C3.04026 24.0659 3.78612 19.7681 4.59265 17.5038V28.2589V29.943V53.6787C4.59265 54.9612 5.63246 56.0001 6.91428 56.0001C8.19633 56.0001 9.2359 54.9612 9.2359 53.6787V31.7674H11.6612V53.6787C11.6612 54.9612 12.7007 56.0001 13.9826 56.0001C15.2648 56.0001 16.3044 54.9612 16.3044 53.6787V29.9428V28.2586V17.5033C17.111 19.7676 17.857 24.0654 17.446 32.139C17.4061 32.9203 18.0074 33.5861 18.789 33.6258C18.8135 33.627 18.8378 33.6277 18.8621 33.6277C19.6115 33.6277 20.2372 33.0398 20.2757 32.2831C20.7949 22.0821 19.6477 15.6178 16.8659 13.07Z" fill="#568F0A"/>
</svg>
