<svg width="25" height="24" viewBox="0 0 25 24" fill="none" xmlns="http://www.w3.org/2000/svg">
<mask id="mask0_318_6825" style="mask-type:alpha" maskUnits="userSpaceOnUse" x="0" y="0" width="25" height="24">
<rect x="0.5" width="24" height="24" fill="#D9D9D9"/>
</mask>
<g mask="url(#mask0_318_6825)">
</g>
<g clip-path="url(#clip0_318_6825)">
<path d="M20.5201 1.52489L4.50009 1.51489C3.45009 1.51489 2.59009 2.37489 2.59009 3.43489V20.5649C2.59009 21.6249 3.45009 22.4849 4.51009 22.4849H20.5001C21.5601 22.4849 22.4201 21.6249 22.4201 20.5649V3.44489C22.4201 2.39489 21.5801 1.54489 20.5301 1.52489H20.5201ZM20.9101 3.44489V20.5749C20.9101 20.8049 20.7201 20.9949 20.4901 20.9949H4.51009C4.28009 20.9949 4.09009 20.8049 4.09009 20.5749V3.44489C4.09009 3.21489 4.28009 3.02489 4.51009 3.02489H20.5001C20.7301 3.02489 20.9201 3.21489 20.9201 3.44489H20.9101ZM19.7801 6.94489C19.7801 6.89489 19.7501 6.84489 19.7301 6.80489C19.7001 6.75489 19.6801 6.71489 19.6501 6.68489C19.6401 6.66489 19.6301 6.64489 19.6201 6.63489C19.6201 6.62489 19.6001 6.60489 19.5901 6.59489C19.5901 6.59489 19.5701 6.58489 19.5601 6.57489C19.5601 6.57489 19.5401 6.54489 19.5301 6.53489C17.5401 4.95489 15.0401 4.08489 12.5001 4.08489C9.96009 4.08489 7.49009 4.93489 5.45009 6.53489C5.45009 6.53489 5.45009 6.55489 5.44009 6.56489C5.42009 6.56489 5.41009 6.58489 5.40009 6.59489C5.39009 6.60489 5.38009 6.62489 5.37009 6.64489C5.37009 6.65489 5.35009 6.67489 5.34009 6.68489C5.34009 6.69489 5.32009 6.70489 5.31009 6.72489C5.29009 6.74489 5.27009 6.77489 5.25009 6.80489C5.22009 6.85489 5.21009 6.89489 5.20009 6.93489C5.19009 6.98489 5.18009 7.03489 5.18009 7.08489V7.22489C5.18009 7.22489 5.18009 7.32489 5.20009 7.37489C5.21009 7.42489 5.24009 7.46489 5.27009 7.50489C5.28009 7.54489 5.29009 7.56489 5.32009 7.60489C5.32009 7.60489 5.34009 7.60489 5.34009 7.61489C5.34009 7.63489 5.36009 7.64489 5.37009 7.65489L9.22009 11.5049C9.22009 11.5049 9.30009 11.5649 9.33009 11.5849C9.35009 11.6049 9.37009 11.6149 9.39009 11.6249C9.39009 11.6249 9.41009 11.6349 9.42009 11.6449C9.51009 11.6849 9.63009 11.7249 9.75009 11.7249C9.87009 11.7249 9.99009 11.6849 10.1001 11.6249C10.1201 11.6249 10.1401 11.6249 10.1501 11.6049C11.5201 10.7349 13.4401 10.7349 14.8201 11.6049C14.8301 11.6049 14.8401 11.6049 14.8501 11.6149C14.8501 11.6149 14.8601 11.6149 14.8701 11.6149C14.8701 11.6149 14.9201 11.6449 14.9501 11.6549C14.9701 11.6549 14.9901 11.6749 15.0201 11.6849H15.0401C15.0401 11.6849 15.1101 11.7049 15.1501 11.7049C15.1501 11.7049 15.1601 11.7049 15.1701 11.7049C15.1701 11.7049 15.1901 11.7049 15.2101 11.7049C15.2201 11.7049 15.2401 11.7049 15.2501 11.7049C15.2601 11.7049 15.2801 11.7049 15.2901 11.7049C15.3401 11.7049 15.3901 11.6949 15.4201 11.6849C15.4601 11.6849 15.4901 11.6549 15.5201 11.6449C15.5301 11.6449 15.5401 11.6349 15.5501 11.6249C15.6001 11.6049 15.6401 11.5749 15.6801 11.5349C15.6801 11.5349 15.7101 11.5149 15.7301 11.5049L19.5601 7.65489C19.5601 7.65489 19.5701 7.62489 19.5801 7.62489C19.5801 7.62489 19.6101 7.60489 19.6201 7.59489C19.6401 7.56489 19.6501 7.54489 19.6601 7.52489V7.50489C19.6601 7.49489 19.6701 7.48489 19.6801 7.47489C19.7001 7.44489 19.7101 7.41489 19.7201 7.37489C19.7201 7.33489 19.7401 7.29489 19.7401 7.24489H19.7601V7.21489C19.7601 7.20489 19.7701 7.11489 19.7601 7.07489C19.7601 7.02489 19.7501 6.97489 19.7401 6.94489H19.7801ZM12.5001 6.84489C12.0901 6.84489 11.7501 7.18489 11.7501 7.59489V9.50489C11.1201 9.58489 10.5001 9.76489 9.91009 10.0449L7.09009 7.22489C8.71009 6.15489 10.5801 5.59489 12.5101 5.59489C14.4401 5.59489 16.3001 6.15489 17.9101 7.21489L15.0901 10.0449C14.5201 9.76489 13.8801 9.57489 13.2501 9.50489V7.59489C13.2501 7.18489 12.9101 6.84489 12.5001 6.84489Z" fill="#9AC2E4"/>
</g>
<defs>
<clipPath id="clip0_318_6825">
<rect width="19.82" height="20.97" fill="white" transform="translate(2.59009 1.51489)"/>
</clipPath>
</defs>
</svg>
